<!DOCTYPE svg PUBLIC "-//W3C//DTD SVG 1.1//EN" "http://www.w3.org/Graphics/SVG/1.1/DTD/svg11.dtd">
 
<svg width="800px" height="800px" viewBox="-2.4 -2.4 52.80 52.80" xmlns="http://www.w3.org/2000/svg" fill="#000000" stroke="#000000" stroke-width="0.00048000000000000007">

<g id="a" stroke-width="0"/>

<g id="b" stroke-linecap="round" stroke-linejoin="round"/>

<g id="iconCarrier"> <title>dark-mode</title> <g id="Layer_2" data-name="Layer 2"> <g id="Icons"> <g> <rect width="48" height="48" fill="none"/> <g> <path d="M14,24A10,10,0,0,0,24,34V14A10,10,0,0,0,14,24Z"/> <path d="M24,2A22,22,0,1,0,46,24,21.9,21.9,0,0,0,24,2ZM6,24A18.1,18.1,0,0,1,24,6v8a10,10,0,0,1,0,20v8A18.1,18.1,0,0,1,6,24Z"/> </g> </g> </g> </g> </g>

</svg>